<svg width="28" height="28" viewBox="0 0 28 28" fill="none" xmlns="http://www.w3.org/2000/svg">
  <g clip-path="url(#clip0_595:13984)">
    <g filter="url(#filter0_di_595:13984)">
      <circle cx="3.73333" cy="13.9999" r="2.73333" stroke="#007aff" stroke-width="2"></circle>
      <path
        d="M16.2665 14.0001C16.2665 15.6625 15.8793 17.1183 15.3048 18.1238C14.714 19.1575 14.0503 19.5335 13.5331 19.5335C13.0159 19.5335 12.3522 19.1575 11.7615 18.1238C11.187 17.1183 10.7998 15.6625 10.7998 14.0001C10.7998 12.3378 11.187 10.882 11.7615 9.8765C12.3522 8.84274 13.0159 8.4668 13.5331 8.4668C14.0503 8.4668 14.714 8.84274 15.3048 9.8765C15.8793 10.882 16.2665 12.3378 16.2665 14.0001Z"
        stroke="#007aff" stroke-width="2"></path>
      <path
        d="M27.0001 14C27.0001 17.2698 26.5398 20.1874 25.825 22.2525C25.4659 23.2898 25.0611 24.0577 24.6611 24.5465C24.255 25.0427 23.9584 25.1334 23.8001 25.1334C23.6418 25.1334 23.3452 25.0427 22.9391 24.5465C22.5391 24.0577 22.1343 23.2898 21.7752 22.2525C21.0604 20.1874 20.6001 17.2698 20.6001 14C20.6001 10.7303 21.0604 7.81264 21.7752 5.74758C22.1343 4.71029 22.5391 3.94236 22.9391 3.45354C23.3452 2.95733 23.6418 2.8667 23.8001 2.8667C23.9584 2.8667 24.255 2.95733 24.6611 3.45354C25.0611 3.94236 25.4659 4.71029 25.825 5.74758C26.5398 7.81264 27.0001 10.7303 27.0001 14Z"
        stroke="#007aff" stroke-width="2"></path>
    </g>
  </g>
  <defs>
    <filter id="filter0_di_595:13984" x="-2" y="0.866699" width="32" height="29.2666" filterUnits="userSpaceOnUse"
      color-interpolation-filters="sRGB">
      <feFlood flood-opacity="0" result="BackgroundImageFix"></feFlood>
      <feColorMatrix in="SourceAlpha" type="matrix" values="0 0 0 0 0 0 0 0 0 0 0 0 0 0 0 0 0 0 127 0"
        result="hardAlpha"></feColorMatrix>
      <feOffset dy="2"></feOffset>
      <feGaussianBlur stdDeviation="1"></feGaussianBlur>
      <feColorMatrix type="matrix" values="0 0 0 0 0 0 0 0 0 0 0 0 0 0 0 0 0 0 0.1 0"></feColorMatrix>
      <feBlend mode="normal" in2="BackgroundImageFix" result="effect1_dropShadow_595:13984"></feBlend>
      <feBlend mode="normal" in="SourceGraphic" in2="effect1_dropShadow_595:13984" result="shape"></feBlend>
      <feColorMatrix in="SourceAlpha" type="matrix" values="0 0 0 0 0 0 0 0 0 0 0 0 0 0 0 0 0 0 127 0"
        result="hardAlpha"></feColorMatrix>
      <feOffset dy="-1"></feOffset>
      <feGaussianBlur stdDeviation="0.5"></feGaussianBlur>
      <feComposite in2="hardAlpha" operator="arithmetic" k2="-1" k3="1"></feComposite>
      <feColorMatrix type="matrix" values="0 0 0 0 0 0 0 0 0 0 0 0 0 0 0 0 0 0 0.12 0"></feColorMatrix>
      <feBlend mode="normal" in2="shape" result="effect2_innerShadow_595:13984"></feBlend>
    </filter>
    <clipPath id="clip0_595:13984">
      <rect width="28" height="28" fill="#007aff"></rect>
    </clipPath>
  </defs>
</svg>