<svg enable-background="new 0 0 659.072 659.073" viewBox="0 0 659.072 659.073" xmlns="http://www.w3.org/2000/svg" xmlns:xlink="http://www.w3.org/1999/xlink"><clipPath id="a"><path d="m0 264.786v-230.116c0-19.095 15.574-34.67 34.669-34.67h230.117c14.321 0 26.55 8.171 32.03 21.402s2.612 27.656-7.515 37.783l-230.116 230.117c-10.127 10.127-24.552 12.996-37.783 7.515-13.232-5.481-21.402-17.709-21.402-32.031"/></clipPath><linearGradient id="b" gradientUnits="userSpaceOnUse" x1="-70.7354" x2="256.914" y1="535.4518" y2="-32.0375"><stop offset="0" stop-color="#0049e6"/><stop offset=".53" stop-color="#9c15f7"/><stop offset="1" stop-color="#ff4cf8"/></linearGradient><mask id="c" height="206.707" maskUnits="userSpaceOnUse" width="182.047" x="0" y="92.848"><path d="m0 92.848h182.047v206.707h-182.047z" fill="url(#e)"/></mask><linearGradient id="d"><stop offset="0" stop-color="#fff"/><stop offset="1"/></linearGradient><linearGradient id="e" gradientUnits="userSpaceOnUse" x1="-311.0372" x2="124.1728" xlink:href="#d" y1="882.4599" y2="139.6201"/><mask id="f" height="109.393" maskUnits="userSpaceOnUse" width="295.605" x="3.949" y="0"><path d="m3.949 0h295.605v109.393h-295.605z" fill="url(#g)"/></mask><linearGradient id="g" gradientUnits="userSpaceOnUse" x1="300.3702" x2="114.8106" xlink:href="#d" y1="-168.2232" y2="110.1059"/><clipPath id="h"><path d="m317.225 659.073h-282.556c-19.095 0-34.669-15.575-34.669-34.67v-134.285c0-9.548 3.403-17.764 10.154-24.516l129.981-129.98c7.876-7.877 17.996-11.312 29.04-9.858s19.93 7.392 25.499 17.038l152.574 264.265c6.365 11.024 6.365 23.646.001 34.67-6.365 11.025-17.294 17.336-30.024 17.336"/></clipPath><linearGradient id="i" gradientUnits="userSpaceOnUse" x1="302.7299" x2="80.6297" y1="242.1752" y2="682.2673"><stop offset="0" stop-color="#0077bf"/><stop offset=".44" stop-color="#1a84f7"/><stop offset="1" stop-color="#5ef9f6"/></linearGradient><mask id="j" height="184.168" maskUnits="userSpaceOnUse" width="327.999" x="0" y="474.905"><path d="m0 474.905h327.999v184.168h-327.999z" fill="url(#k)"/></mask><linearGradient id="k" gradientUnits="userSpaceOnUse" x1="95.5712" x2="182.2412" xlink:href="#d" y1="784.8198" y2="508.9189"/><mask id="l" height="156.069" maskUnits="userSpaceOnUse" width="231.114" x="43.643" y="325.438"><path d="m43.643 325.438h231.114v156.069h-231.114z" fill="url(#m)"/></mask><linearGradient id="m" gradientUnits="userSpaceOnUse" x1="236.2627" x2="145.9228" xlink:href="#d" y1="-63.0508" y2="483.8496"/><mask id="n" height="281.629" maskUnits="userSpaceOnUse" width="272.103" x="75.146" y="325.438"><path d="m75.146 325.438h272.104v281.629h-272.104z" fill="url(#o)"/></mask><linearGradient id="o" gradientUnits="userSpaceOnUse" x1="504.9639" x2="172.9141" xlink:href="#d" y1="-235.7603" y2="557.7397"/><clipPath id="p"><path d="m624.402 659.073h-123.195c-12.732 0-23.66-6.311-30.025-17.336l-219.916-380.905c-7.957-13.781-5.742-30.598 5.51-41.85l208.826-208.827c6.751-6.752 14.967-10.155 24.515-10.155h134.285c19.096 0 34.67 15.575 34.67 34.67v589.733c0 19.095-15.574 34.67-34.67 34.67"/></clipPath><linearGradient id="q" gradientUnits="userSpaceOnUse" x1="305.0309" x2="618.7507" y1="582.693" y2="39.3122"><stop offset="0" stop-color="#ff057e"/><stop offset="1" stop-color="#ffcb00"/></linearGradient><mask id="r" height="132.873" maskUnits="userSpaceOnUse" width="316.188" x="342.885" y="0"><path d="m342.885.001h316.188v132.872h-316.188z" fill="url(#s)"/></mask><linearGradient id="s" gradientUnits="userSpaceOnUse" x1="524.9258" x2="490.7451" xlink:href="#d" y1="-209.8237" y2="184.4853"/><mask id="t" height="376.683" maskUnits="userSpaceOnUse" width="168.955" x="490.117" y="0"><path d="m490.117 0h168.955v376.683h-168.955z" fill="url(#u)"/></mask><linearGradient id="u" gradientUnits="userSpaceOnUse" x1="822.3545" x2="484.1933" xlink:href="#d" y1="-207.8862" y2="332.9141"/><mask id="v" height="488.966" maskUnits="userSpaceOnUse" width="368.243" x="246.527" y="170.107"><path d="m246.527 170.107h368.243v488.966h-368.243z" fill="url(#w)"/></mask><linearGradient id="w" gradientUnits="userSpaceOnUse" x1="61.5811" x2="559.6611" xlink:href="#d" y1="1087.5923" y2="179.3325"/><mask id="x" height="398.241" maskUnits="userSpaceOnUse" width="407.807" x="251.266" y="260.832"><path d="m251.266 260.832h407.807v398.241h-407.807z" fill="url(#y)"/></mask><linearGradient id="y" gradientUnits="userSpaceOnUse" x1="123.5127" x2="580.084" xlink:href="#d" y1="926.4009" y2="284.269"/><path clip-path="url(#a)" d="m0 0h302.297v302.297h-302.297z" fill="url(#b)"/><path clip-rule="evenodd" d="m0 264.786v-171.938s7.132 66.533 31.547 95.831c24.415 29.299 100.793 12.897 150.5-22.24l-122.862 122.863c-10.127 10.127-24.552 12.996-37.783 7.515-13.232-5.481-21.402-17.709-21.402-32.031" fill="#306" fill-rule="evenodd" mask="url(#c)"/><path clip-rule="evenodd" d="m3.949 18.632c5.805-11.059 17.405-18.632 30.72-18.632h230.117c14.321 0 26.55 8.171 32.03 21.402s2.612 27.656-7.515 37.783l-50.208 50.208c-58.63-98.885-235.028-90.767-235.144-90.761" fill="#ff98ff" fill-rule="evenodd" mask="url(#f)"/><path clip-path="url(#h)" d="m0 324.31h353.614v334.763h-353.614z" fill="url(#i)"/><path clip-rule="evenodd" d="m317.225 659.073h-282.556c-19.095 0-34.669-15.575-34.669-34.67v-134.285c0-5.526 1.14-10.605 3.408-15.213 0 0 28.188 180.924 324.591 182.546-3.386 1.068-7.001 1.622-10.774 1.622" fill="#98ffff" fill-rule="evenodd" mask="url(#j)"/><path clip-rule="evenodd" d="m43.643 432.115 96.493-96.493c7.876-7.877 17.996-11.312 29.04-9.858s19.93 7.392 25.499 17.038l80.082 138.705c-94.333-111.248-231.114-49.392-231.114-49.392z" fill="#0131b8" fill-rule="evenodd" mask="url(#l)"/><path clip-rule="evenodd" d="m75.146 400.612 64.99-64.99c7.876-7.877 17.996-11.312 29.04-9.858s19.93 7.392 25.499 17.038l152.574 264.265c-42.29-61.377-158.527-201.699-193.93-214.518-35.403-12.817-78.173 8.063-78.173 8.063" fill="#0131b8" fill-rule="evenodd" mask="url(#n)"/><path clip-path="url(#p)" d="m243.309 0h415.764v659.073h-415.764z" fill="url(#q)"/><g clip-rule="evenodd" fill-rule="evenodd"><path d="m342.885 132.872 122.717-122.717c6.751-6.752 14.967-10.155 24.515-10.155h134.285c19.096 0 34.67 15.575 34.67 34.67v46.615c-154.617-65.527-316.188 51.587-316.188 51.587z" fill="#fdf063" mask="url(#r)"/><path d="m490.117 0h134.285c19.096 0 34.67 15.575 34.67 34.67v342.013c-36.27-266.129-168.955-376.683-168.955-376.683" fill="#fdf063" mask="url(#t)"/><path d="m614.771 659.073h-113.564c-12.732 0-23.66-6.311-30.025-17.336l-219.916-380.905c-7.957-13.781-5.742-30.598 5.51-41.85l48.874-48.874.001-.001c-.001 0 106.471 346.527 309.12 488.966" fill="#cb0680" mask="url(#v)"/><path d="m624.402 659.073h-123.195c-12.732 0-23.66-6.311-30.025-17.336l-219.916-380.905s209.173 295.3 407.807 275.767v87.804c-.001 19.095-15.575 34.67-34.671 34.67" fill="#cb0680" mask="url(#x)"/></g></svg>