<svg fill="none" height="180" viewBox="0 0 336 180" width="336" xmlns="http://www.w3.org/2000/svg" xmlns:xlink="http://www.w3.org/1999/xlink"><clipPath id="a"><path d="m0 0h336v180h-336z"/></clipPath><filter id="b" color-interpolation-filters="sRGB" height="1.15" width="1.07717" x="-.038585" y="-.0625"><feFlood flood-opacity="0" result="BackgroundImageFix"/><feColorMatrix in="SourceAlpha" type="matrix" values="0 0 0 0 0 0 0 0 0 0 0 0 0 0 0 0 0 0 127 0"/><feOffset dx="0" dy="1.5"/><feGaussianBlur stdDeviation="2.25"/><feColorMatrix type="matrix" values="0 0 0 0 0 0 0 0 0 0 0 0 0 0 0 0 0 0 0.07999999821186066 0"/><feBlend in2="BackgroundImageFix" mode="normal" result="effect1_dropShadow"/><feBlend in="SourceGraphic" in2="effect1_dropShadow" mode="normal" result="shape"/></filter><clipPath id="c"><rect height="120" rx="6" width="233.25" x="51.375" y="30"/></clipPath><clipPath id="d"><path d="m51.375 57h233.25v93h-233.25z"/></clipPath><clipPath id="e"><path d="m63.375 126h124v15h-124z"/></clipPath><g clip-path="url(#a)"><path d="m0 0h336v180h-336z" fill="#f3f4f6"/><g filter="url(#b)"><g clip-path="url(#c)"><rect fill="#fff" height="120" rx="6" width="233.25" x="51.375" y="30"/><path d="m284.625 57v-1h-233.25v1z" fill="#f5f5f5" fill-rule="evenodd"/><rect fill="#afabb3" height="8" rx="4" width="40" x="63.375" y="39.5"/><g clip-path="url(#d)"><path d="m67.099 107.892v-4.176q1.512.324 2.556.468 1.044.144 2.448.144 2.808 0 4.356-.954 1.548-.954 1.548-3.222 0-2.268-1.368-3.204-1.368-.936-4.5-.936-2.088 0-5.112.54l1.728-13.536h12.672v4.14h-8.784l-.828 5.436q1.296-.216 2.7-.216 4.248 0 6.39 1.89 2.142 1.89 2.142 5.778 0 4.212-2.754 6.264-2.754 2.052-7.83 2.052-2.88 0-5.364-.468zm21.132 0v-4.176q1.512.324 2.556.468 1.044.144 2.448.144 2.808 0 4.356-.954 1.548-.954 1.548-3.222 0-2.268-1.368-3.204-1.368-.936-4.5-.936-2.088 0-5.112.54l1.728-13.536h12.672v4.14h-8.784l-.828 5.436q1.296-.216 2.7-.216 4.248 0 6.39 1.89 2.142 1.89 2.142 5.778 0 4.212-2.754 6.264-2.754 2.052-7.83 2.052-2.88 0-5.364-.468z" fill="#38363c"/><path d="m113.21 103.6395q-.4455 0-.7965-.1215-.351-.1215-.60075-.4118-.24975-.2902-.38475-.78295-.135-.49275-.135-1.24875 0-.7425.135-1.242.135-.4995.38475-.7965.24975-.297.60075-.4185.351-.1215.7965-.1215.4455 0 .7965.1215.351.1215.60075.4185.24975.297.38475.7965.135.4995.135 1.242 0 .756-.135 1.24875-.135.49275-.38475.78295-.24975.2903-.60075.4118-.351.1215-.7965.1215zm4.86-5.0085h.9045l-5.2515 9.369h-.891zm-4.86 4.3065q.2835 0 .47925-.08775.19575-.08775.31725-.297.1215-.20925.1755-.567.054-.35775.054-.91125 0-.54-.054-.89775-.054-.35775-.1755-.567-.1215-.20925-.31725-.29025-.19575-.081-.47925-.081-.2835 0-.4725.081-.189.081-.3105.29025-.1215.20925-.1755.567-.054.35775-.054.89775 0 .5535.054.91125.054.35775.1755.567.1215.20925.3105.297.189.08775.4725.08775zm5.4135 5.1975q-.4455 0-.7965-.1215-.351-.1215-.6075-.4117-.2565-.2903-.3915-.783-.135-.4928-.135-1.2488 0-.7425.135-1.242.135-.4995.3915-.7965.2565-.297.6075-.4185.351-.1215.7965-.1215.4455 0 .7965.1215.351.1215.60075.4185.24975.297.38475.7965.135.4995.135 1.242 0 .756-.135 1.2488-.135.4927-.38475.783-.24975.2902-.60075.4117-.351.1215-.7965.1215zm0-.702q.2835 0 .47925-.0877.19575-.0878.31725-.297.1215-.2093.16875-.5671.04725-.3577.04725-.9112 0-.54-.04725-.8978-.04725-.3577-.16875-.567-.1215-.2092-.31725-.2902-.19575-.081-.47925-.081-.2835 0-.4725.081-.189.081-.3105.2902-.1215.2093-.1755.567-.054.3578-.054.8978 0 .5535.054.9112.054.3578.1755.5671.1215.2092.3105.297.189.0877.4725.0877z" fill="#6b7280"/><g clip-path="url(#e)"><rect fill="#eae8eb" height="8" rx="4" width="40" x="63.375" y="129.5"/><rect fill="#22c55e" height="8" rx="4" width="12" x="107.375" y="129.5"/><rect fill="#eae8eb" height="8" rx="4" width="40" x="131.375" y="129.5"/><rect fill="#ef4444" height="8" rx="4" width="12" x="175.375" y="129.5"/></g></g></g></g></g></svg>