<svg fill="none" height="180" viewBox="0 0 336 180" width="336" xmlns="http://www.w3.org/2000/svg" xmlns:xlink="http://www.w3.org/1999/xlink"><clipPath id="a"><path d="m0 0h336v180h-336z"/></clipPath><g clip-path="url(#a)"><path d="m0 0h336v180h-336z" fill="#f3f4f6"/><rect fill="#fff" height="32" rx="6" width="168" x="84" y="74.000122"/><rect fill="none" height="31" rx="5.5" stroke="#cdcacf" width="167" x="84.5" y="74.500122"/><g fill="#afabb3"><path d="m105.058 87.51012207v.882h4.074v.826h-8.96v-.826h3.906v-.882h-3.01v-.798h3.01v-.84h-3.43v-.826h3.43v-1.246l.98.028v1.218h3.514v.826h-3.514v.84h3.192v.798zm-5.838-.238q-.238-.56-.756-1.372-.518-.812-.896-1.26l.812-.546q.35.42.889 1.218.539.798.805 1.288zm.126 6.706 1.162-1.064.378.952q-.364.308-.854.735-.49.427-.854.763-.21.168-.588.574l-.616-.756q.196-.196.287-.385.091-.189.091-.413v-5.138h-1.764v-.98h2.758zm1.946 2.226v-6.118h6.552v4.774q0 .49-.14.749-.14.259-.483.378-.343.119-1.043.175l-.42.042-.294-.798.532-.042q.42-.042.602-.105.182-.063.231-.189.049-.126.049-.406v-.392h-4.62v1.932zm5.586-4.438v-.854h-4.62v.854zm-4.62.826v.854h4.62v-.854zm12.684.504-1.274.252v3.038h-.854v-2.884q-1.708.294-2.394.378l-.126-.98q.756-.084 2.52-.378v-1.806h-1.96v-.98q.378-1.134.938-3.276h-1.204v-.938h1.428q.238-.994.406-1.876l.91.21-.378 1.666h2.212v.938h-2.45q-.518 2.058-.938 3.332h1.036v-1.946l.854.028v1.918h1.19v.924h-1.19v1.666q.784-.14 1.204-.238zm4.186-9.254q.616 1.022 1.652 1.918 1.036.896 2.296 1.54l-.532.896q-1.372-.854-2.331-1.694-.959-.84-1.561-1.792-.756 1.176-2.016 2.254h4.018v.854h-4.032v-.84q-.476.42-1.666 1.288l-.63-.854q1.288-.784 2.219-1.652.931-.868 1.575-1.918zm2.016 4.634.882.028v6.328q0 .532-.126.819-.126.287-.462.413-.336.126-.98.154l-.616.028-.294-.896.756-.056q.532-.042.686-.182.154-.14.154-.56zm-5.852 7.756v-7.462h3.262v6.272q0 .644-.238.889-.238.245-.882.287l-.42.028-.28-.84.434-.056q.364-.042.483-.154.119-.112.119-.406v-1.162h-1.708v2.604zm4.2-7.294.826.028v4.998h-.826zm-1.722 1.862v-1.232h-1.708v1.232zm-1.708.784v1.232h1.708v-1.232zm20.664 3.71-.826.938q-1.82-1.372-3.08-3.22-1.26-1.848-2.296-4.438-.756 2.114-2.212 4.116-1.456 2.002-3.36 3.444l-.798-.84q2.128-1.568 3.619-3.773 1.491-2.205 2.079-4.501-.546-1.008-1.484-1.736l-.518-.378.658-.77.364.238q.588.448.987.882.399.434.784 1.134.385.7.819 1.848.798 2.072 2.17 3.955 1.372 1.883 3.094 3.101z"/><rect height="8" rx="4" width="40" x="84" y="58.000122"/></g></g></svg>