<svg fill="none" height="180" viewBox="0 0 336 180" width="336" xmlns="http://www.w3.org/2000/svg" xmlns:xlink="http://www.w3.org/1999/xlink"><clipPath id="a"><path d="m0 0h336v180h-336z"/></clipPath><g clip-path="url(#a)"><path d="m0 0h336v180h-336z" fill="#f3f4f6"/><rect fill="#2882ff" height="32" rx="8" width="77" x="130" y="74"/><path d="m147.288 85.284h2.8q.952 0 1.582.154.63.154 1.001.476.371.322.525.805.154.483.154 1.141 0 .756-.322 1.288-.322.532-1.092.77v.056q.49.098.826.301.336.203.539.497.203.294.287.658.084.364.084.798 0 .658-.154 1.176-.154.518-.532.875-.378.357-1.015.539-.637.182-1.603.182h-3.08zm2.212 4.256q.7 0 1.197-.07.497-.07.812-.252.315-.182.462-.497.147-.315.147-.791 0-.532-.147-.847-.147-.315-.462-.476-.315-.161-.812-.21-.497-.049-1.197-.049h-.952v3.192zm.35 4.382q.742 0 1.239-.07.497-.07.791-.259.294-.189.413-.525.119-.336.119-.854 0-.448-.126-.763-.126-.315-.42-.518-.294-.203-.784-.301-.49-.098-1.232-.098h-1.302v3.388zm12.138-6.482v7.56h-1.022l-.154-1.092q-.168.378-.434.616-.266.238-.581.371-.315.133-.665.189-.35.056-.7.056-.742 0-1.232-.182-.49-.182-.777-.504-.287-.322-.406-.777-.119-.455-.119-1.001v-5.236h1.204v4.788q0 .434.056.777.056.343.217.581.161.238.448.364.287.126.735.126.35 0 .686-.049.336-.049.623-.21.287-.161.518-.455.231-.294.399-.784v-5.138zm4.9 6.636q.252 0 .441-.021.189-.021.385-.063v1.022q-.224.028-.42.049-.196.021-.434.021-.63 0-1.057-.091-.427-.091-.7-.357-.273-.266-.392-.735-.119-.469-.119-1.211v-4.242h-1.12v-1.008h1.12v-1.792h1.204v1.792h1.876v1.008h-1.876v4.172q0 .448.042.728.042.28.161.441.119.161.329.224.21.063.56.063zm4.718 0q.252 0 .441-.021.189-.021.385-.063v1.022q-.224.028-.42.049-.196.021-.434.021-.63 0-1.057-.091-.427-.091-.7-.357-.273-.266-.392-.735-.119-.469-.119-1.211v-4.242h-1.12v-1.008h1.12v-1.792h1.204v1.792h1.876v1.008h-1.876v4.172q0 .448.042.728.042.28.161.441.119.161.329.224.21.063.56.063zm5.418 1.064q-.84 0-1.491-.189-.651-.189-1.099-.644-.448-.455-.679-1.204-.231-.749-.231-1.883 0-1.134.231-1.883.231-.749.679-1.204.448-.455 1.099-.644.651-.189 1.491-.189.84 0 1.491.189.651.189 1.092.644.441.455.672 1.204.231.749.231 1.883 0 1.134-.231 1.883-.231.749-.672 1.204-.441.455-1.092.644-.651.189-1.491.189zm0-1.022q.644 0 1.071-.14.427-.14.679-.476.252-.336.357-.896.105-.56.105-1.386 0-.826-.112-1.386-.112-.56-.371-.896-.259-.336-.686-.483-.427-.147-1.043-.147-.63 0-1.057.147-.427.147-.686.483-.259.336-.364.896-.105.56-.105 1.386 0 .826.112 1.386.112.56.378.896.266.336.686.476.42.14 1.036.14zm9.226-6.818q.742 0 1.232.182.49.182.777.511.287.329.406.777.119.448.119.994v5.236h-1.218v-4.788q0-.434-.056-.777-.056-.343-.217-.574-.161-.231-.441-.357-.28-.126-.728-.126-.364 0-.707.049-.343.049-.644.21-.301.161-.546.455-.245.294-.399.798v5.11h-1.204v-7.56h1.204v1.078q.168-.364.441-.602.273-.238.595-.371.322-.133.679-.189.357-.056.707-.056z" fill="#fff"/></g></svg>