<svg fill="none" height="180" viewBox="0 0 336 180" width="336" xmlns="http://www.w3.org/2000/svg" xmlns:xlink="http://www.w3.org/1999/xlink"><clipPath id="a"><path d="m0 0h336v180h-336z"/></clipPath><linearGradient id="b" x1=".5" x2=".5" y1=".6667" y2="1"><stop offset="0" stop-color="#fff"/><stop offset="1" stop-color="#fff" stop-opacity="0"/></linearGradient><mask id="c"><path d="m0-.000122h336v180.000244h-336z" fill="url(#b)"/></mask><clipPath id="d"><path d="m62.71704102 28.58215332c0-3.3137085 2.6862915-6 6-6h198.56590271c3.31370849 0 6 2.6862915 6 6v151.41807556h-210.56590271z"/><path d="m68.71704102 22.58215332c-3.31371 0-6 2.68629-6 6v151.418h210.566v-151.418c0-3.31371-2.686-6-6-6zm204.066 156.918v-150.918q0-2.27818-1.611-3.88909-1.611-1.61091-3.889-1.61091l-198.566-.000001q-2.27817.000001-3.88909 1.610911-1.61091 1.61091-1.61091 3.88909v150.918z"/></clipPath><clipPath id="e"><rect height="8" rx="1.666667" width="8" x="179.949608" y="40.582155"/></clipPath><clipPath id="f"><rect height="8" rx="1.666667" width="8" x="194.616276" y="40.582155"/></clipPath><clipPath id="g"><rect height="8" rx="1.666667" width="8" x="209.282944" y="40.582155"/></clipPath><clipPath id="h"><rect height="8" rx="1.666667" width="8" x="223.949612" y="40.582155"/></clipPath><clipPath id="i"><rect height="8" rx="1.666667" width="8" x="238.61628" y="40.582155"/></clipPath><g clip-path="url(#a)" mask="url(#c)"><path d="m0 0h336v180h-336z" fill="#f3f4f6"/><g clip-path="url(#d)"><path d="m62.71704102 28.58215332c0-3.3137085 2.6862915-6 6-6h198.56590271c3.31370849 0 6 2.6862915 6 6v151.41807556h-210.56590271z" fill="#f3f4f9"/><path d="m62.717041 22.582153h210.565903v12h-210.565903z" fill="#fafafa"/><path d="m273.28304102 34.58215332v-.5h-210.566v.5z" fill="#000" fill-opacity=".05" fill-rule="evenodd"/><ellipse cx="70.967041" cy="28.582153" fill="#ff5f57" rx="2.25" ry="2.25"/><ellipse cx="78.467041" cy="28.582153" fill="#febc2e" rx="2.25" ry="2.25"/><ellipse cx="85.967041" cy="28.582153" fill="#28c840" rx="2.25" ry="2.25"/><path d="m62.717041 34.582153h210.565903v20h-210.565903z" fill="#fff"/><path d="m273.28304102 54.58215332v-.5h-210.566v.5z" fill="#eae8eb" fill-rule="evenodd"/><ellipse cx="77.717042" cy="44.582154" fill="#2882ff" rx="5.000001" ry="5.000001"/><g clip-path="url(#e)"><rect fill="#f5f5f5" height="8" rx="1.666667" width="8" x="179.949608" y="40.582155"/></g><g clip-path="url(#f)"><rect fill="#f5f5f5" height="8" rx="1.666667" width="8" x="194.616276" y="40.582155"/></g><g clip-path="url(#g)"><rect fill="#f5f5f5" height="8" rx="1.666667" width="8" x="209.282944" y="40.582155"/></g><g clip-path="url(#h)"><rect fill="#f5f5f5" height="8" rx="1.666667" width="8" x="223.949612" y="40.582155"/></g><g clip-path="url(#i)"><rect fill="#f5f5f5" height="8" rx="1.666667" width="8" x="238.61628" y="40.582155"/></g><rect fill="#429488" height="10" rx="5" width="10" x="258.282951" y="39.582154"/><path d="m62.717041 54.582153h210.565903v16h-210.565903z" fill="#fff"/><path d="m273.28304102 70.58215332v-.5h-210.566v.5z" fill="#eae8eb" fill-rule="evenodd"/><path d="m86.71704102 54.58215332h-.5v16h.5z" fill="#eae8eb" fill-rule="evenodd"/><path d="m72.31706467 58.98210449q0 .05895-.00578.11762-.00578.05867-.01728.11649-.0115.05782-.02861.11423-.01711.05642-.03967.11088-.02256.05447-.05035.10646-.02779.05199-.06055.101-.03275.04902-.07015.09459-.0374.04557-.07908.08726-.04169.04168-.08726.07908-.04557.0374-.09459.07015-.04901.03276-.101.06055-.05199.02779-.10646.05035-.05446.02256-.11088.03967-.05641.01711-.11423.02861-.05782.0115-.11649.01728-.05867.00578-.11762.00578-.05895 0-.11762-.00578-.05867-.00578-.116488-.01728-.05782-.0115-.114233-.02861-.056414-.01711-.110879-.03967-.054465-.02256-.106456-.05035-.051991-.02779-.101008-.06055-.049017-.03275-.094588-.07015-.04557-.0374-.087256-.07908-.041686-.04169-.079084-.08726-.037399-.04557-.070151-.09459-.032753-.04901-.060542-.101-.02779-.05199-.0503504-.10646-.0225601-.05446-.039673-.11088-.0171129-.05641-.0286139-.11423-.011501-.05782-.01727937-.11649-.00577833-.05867-.00577833-.11762 0-.05895.00577833-.11762.00577837-.05867.01727937-.116488.011501-.05782.0286139-.114233.0171129-.056414.039673-.110879.0225604-.054465.0503504-.106456.027789-.051991.060542-.101008.032752-.049017.070151-.094588.037398-.04557.079084-.087256.041686-.041686.087256-.079084.045571-.037399.094588-.070151.049017-.032753.101008-.060542.051991-.02779.106456-.0503504.054465-.0225601.110879-.039673.056413-.0171129.114233-.0286139.057818-.011501.116488-.01727937.05867-.00577833.11762-.00577833.05895 0 .11762.00577833.05867.00577837.11649.01727937.05782.011501.11423.0286139.05642.0171129.11088.039673.05447.0225604.10646.0503504.05199.027789.101.060542.04902.032752.09459.070151.04557.037398.08726.079084.04168.041686.07908.087256.0374.045571.07015.094588.03276.049017.06055.101008.02779.051991.05035.106456.02256.054465.03967.110879.01711.056413.02861.114233.0115.057818.01728.116488.00578.05867.00578.11762zm3.59985 0q0 .05895-.00577.11762-.00578.05867-.01728.11649-.0115.05782-.02862.11423-.01711.05642-.03967.11088-.02256.05447-.05035.10646-.02779.05199-.06054.101-.03275.04902-.07015.09459-.0374.04557-.07909.08726-.04168.04168-.08725.07908-.04557.0374-.09459.07015-.04902.03276-.10101.06055-.05199.02779-.10646.05035-.05446.02256-.11087.03967-.05642.01711-.11424.02861-.05782.0115-.11648.01728-.05867.00578-.11763.00578-.05895 0-.11762-.00578-.05866-.00578-.11648-.01728-.05782-.0115-.11424-.02861-.05641-.01711-.11088-.03967-.05446-.02256-.10645-.05035-.05199-.02779-.10101-.06055-.04902-.03275-.09459-.07015-.04557-.0374-.08725-.07908-.04169-.04169-.07909-.08726-.0374-.04557-.07015-.09459-.03275-.04901-.06054-.101-.02779-.05199-.05035-.10646-.02256-.05446-.03968-.11088-.01711-.05641-.02861-.11423-.0115-.05782-.01728-.11649-.00578-.05867-.00578-.11762 0-.05895.00578-.11762.00578-.05867.01728-.116488.0115-.05782.02861-.114233.01712-.056414.03968-.110879.02256-.054465.05035-.106456.02779-.051991.06054-.101008.03275-.049017.07015-.094588.0374-.04557.07909-.087256.04168-.041686.08725-.079084.04557-.037399.09459-.070151.04902-.032753.10101-.060542.05199-.02779.10645-.0503504.05447-.0225601.11088-.039673.05642-.0171129.11424-.0286139.05782-.011501.11648-.01727937.05867-.00577833.11762-.00577833.05896 0 .11763.00577833.05866.00577837.11648.01727937.05782.011501.11424.0286139.05641.0171129.11087.039673.05447.0225604.10646.0503504.05199.027789.10101.060542.04902.032752.09459.070151.04557.037398.08725.079084.04169.041686.07909.087256.0374.045571.07015.094588.03275.049017.06054.101008.02779.051991.05035.106456.02256.054465.03967.110879.01712.056413.02862.114233.0115.057818.01728.116488.00577.05867.00577.11762zm3.6001 0q0 .05895-.00578.11762-.00577.05867-.01728.11649-.0115.05782-.02861.11423-.01711.05642-.03967.11088-.02256.05447-.05035.10646-.02779.05199-.06054.101-.03276.04902-.07015.09459-.03741.04557-.07909.08726-.04169.04168-.08726.07908-.04557.0374-.09458.07015-.04902.03276-.10101.06055-.05199.02779-.10646.05035-.05446.02256-.11088.03967-.05641.01711-.11423.02861-.05782.0115-.11649.01728-.05867.00578-.11762.00578-.05895 0-.11762-.00578-.05867-.00578-.11649-.01728-.05782-.0115-.11423-.02861-.05641-.01711-.11088-.03967-.05446-.02256-.10645-.05035-.052-.02779-.10101-.06055-.04902-.03275-.09459-.07015-.04557-.0374-.08726-.07908-.04168-.04169-.07908-.08726-.0374-.04557-.07015-.09459-.03275-.04901-.06054-.101-.02779-.05199-.05035-.10646-.02256-.05446-.03968-.11088-.01711-.05641-.02861-.11423-.0115-.05782-.01728-.11649-.00578-.05867-.00578-.11762 0-.05895.00578-.11762.00578-.05867.01728-.116488.0115-.05782.02861-.114233.01712-.056414.03968-.110879.02256-.054465.05035-.106456.02779-.051991.06054-.101008.03275-.049017.07015-.094588.0374-.04557.07908-.087256.04169-.041686.08726-.079084.04557-.037399.09459-.070151.04901-.032753.10101-.060542.05199-.02779.10645-.0503504.05447-.0225601.11088-.039673.05641-.0171129.11423-.0286139.05782-.011501.11649-.01727937.05867-.00577833.11762-.00577833.05895 0 .11762.00577833.05867.00577837.11649.01727937.05782.011501.11423.0286139.05642.0171129.11088.039673.05447.0225604.10646.0503504.05199.027789.10101.060542.04901.032752.09458.070151.04557.037398.08726.079084.04168.041686.07908.087256.0374.045571.07015.094588.03276.049017.06055.101008.02779.051991.05035.106456.02256.054465.03967.110879.01711.056413.02861.114233.01151.057818.01728.116488.00578.05867.00578.11762zm-7.19995 3.6001q0 .05895-.00578.11762-.00578.05867-.01728.11649-.0115.05782-.02861.11423-.01711.05641-.03967.11088-.02256.05446-.05035.10645-.02779.052-.06055.10101-.03275.04902-.07015.09459-.0374.04557-.07908.08726-.04169.04168-.08726.07908-.04557.0374-.09459.07015-.04901.03275-.101.06054-.05199.02779-.10646.05035-.05446.02256-.11088.03968-.05641.01711-.11423.02861-.05782.0115-.11649.01728-.05867.00578-.11762.00578-.05895 0-.11762-.00578-.05867-.00578-.116488-.01728-.05782-.0115-.114233-.02861-.056414-.01712-.110879-.03968-.054465-.02256-.106456-.05035-.051991-.02779-.101008-.06054-.049017-.03275-.094588-.07015-.04557-.0374-.087256-.07908-.041686-.04169-.079084-.08726-.037399-.04557-.070151-.09459-.032753-.04901-.060542-.10101-.02779-.05199-.0503504-.10645-.0225601-.05447-.039673-.11088-.0171129-.05641-.0286139-.11423-.011501-.05782-.01727937-.11649-.00577833-.05867-.00577833-.11762 0-.05895.00577833-.11762.00577837-.05867.01727937-.11649.011501-.05782.0286139-.11423.0171129-.05642.039673-.11088.0225604-.05447.0503504-.10646.027789-.05199.060542-.10101.032752-.04901.070151-.09458.037398-.04557.079084-.08726.041686-.04169.087256-.07908.045571-.0374.094588-.07016.049017-.03275.101008-.06054.051991-.02779.106456-.05035.054465-.02256.110879-.03967.056413-.01711.114233-.02861.057818-.01151.116488-.01728.05867-.00578.11762-.00578.05895 0 .11762.00578.05867.00577.11649.01728.05782.0115.11423.02861.05642.01711.11088.03967.05447.02256.10646.05035.05199.02779.101.06054.04902.03276.09459.07016.04557.03739.08726.07908.04168.04169.07908.08726.0374.04557.07015.09458.03276.04902.06055.10101.02779.05199.05035.10646.02256.05446.03967.11088.01711.05641.02861.11423.0115.05782.01728.11649.00578.05867.00578.11762zm3.59985 0q0 .05895-.00577.11762-.00578.05867-.01728.11649-.0115.05782-.02862.11423-.01711.05641-.03967.11088-.02256.05446-.05035.10645-.02779.052-.06054.10101-.03275.04902-.07015.09459-.0374.04557-.07909.08726-.04168.04168-.08725.07908-.04557.0374-.09459.07015-.04902.03275-.10101.06054-.05199.02779-.10646.05035-.05446.02256-.11087.03968-.05642.01711-.11424.02861-.05782.0115-.11648.01728-.05867.00578-.11763.00578-.05895 0-.11762-.00578-.05866-.00578-.11648-.01728-.05782-.0115-.11424-.02861-.05641-.01712-.11088-.03968-.05446-.02256-.10645-.05035-.05199-.02779-.10101-.06054-.04902-.03275-.09459-.07015-.04557-.0374-.08725-.07908-.04169-.04169-.07909-.08726-.0374-.04557-.07015-.09459-.03275-.04901-.06054-.10101-.02779-.05199-.05035-.10645-.02256-.05447-.03968-.11088-.01711-.05641-.02861-.11423-.0115-.05782-.01728-.11649-.00578-.05867-.00578-.11762 0-.05895.00578-.11762.00578-.05867.01728-.11649.0115-.05782.02861-.11423.01712-.05642.03968-.11088.02256-.05447.05035-.10646.02779-.05199.06054-.10101.03275-.04901.07015-.09458.0374-.04557.07909-.08726.04168-.04169.08725-.07908.04557-.0374.09459-.07016.04902-.03275.10101-.06054.05199-.02779.10645-.05035.05447-.02256.11088-.03967.05642-.01711.11424-.02861.05782-.01151.11648-.01728.05867-.00578.11762-.00578.05896 0 .11763.00578.05866.00577.11648.01728.05782.0115.11424.02861.05641.01711.11087.03967.05447.02256.10646.05035.05199.02779.10101.06054.04902.03276.09459.07016.04557.03739.08725.07908.04169.04169.07909.08726.0374.04557.07015.09458.03275.04902.06054.10101.02779.05199.05035.10646.02256.05446.03967.11088.01712.05641.02862.11423.0115.05782.01728.11649.00577.05867.00577.11762zm3.6001 0q0 .05895-.00578.11762-.00577.05867-.01728.11649-.0115.05782-.02861.11423-.01711.05641-.03967.11088-.02256.05446-.05035.10645-.02779.052-.06054.10101-.03276.04902-.07015.09459-.03741.04557-.07909.08726-.04169.04168-.08726.07908-.04557.0374-.09458.07015-.04902.03275-.10101.06054-.05199.02779-.10646.05035-.05446.02256-.11088.03968-.05641.01711-.11423.02861-.05782.0115-.11649.01728-.05867.00578-.11762.00578-.05895 0-.11762-.00578-.05867-.00578-.11649-.01728-.05782-.0115-.11423-.02861-.05641-.01712-.11088-.03968-.05446-.02256-.10645-.05035-.052-.02779-.10101-.06054-.04902-.03275-.09459-.07015-.04557-.0374-.08726-.07908-.04168-.04169-.07908-.08726-.0374-.04557-.07015-.09459-.03275-.04901-.06054-.10101-.02779-.05199-.05035-.10645-.02256-.05447-.03968-.11088-.01711-.05641-.02861-.11423-.0115-.05782-.01728-.11649-.00578-.05867-.00578-.11762 0-.05895.00578-.11762.00578-.05867.01728-.11649.0115-.05782.02861-.11423.01712-.05642.03968-.11088.02256-.05447.05035-.10646.02779-.05199.06054-.10101.03275-.04901.07015-.09458.0374-.04557.07908-.08726.04169-.04169.08726-.07908.04557-.0374.09459-.07016.04901-.03275.10101-.06054.05199-.02779.10645-.05035.05447-.02256.11088-.03967.05641-.01711.11423-.02861.05782-.01151.11649-.01728.05867-.00578.11762-.00578.05895 0 .11762.00578.05867.00577.11649.01728.05782.0115.11423.02861.05642.01711.11088.03967.05447.02256.10646.05035.05199.02779.10101.06054.04901.03276.09458.07016.04557.03739.08726.07908.04168.04169.07908.08726.0374.04557.07015.09458.03276.04902.06055.10101.02779.05199.05035.10646.02256.05446.03967.11088.01711.05641.02861.11423.01151.05782.01728.11649.00578.05867.00578.11762zm-7.19995 3.59985q0 .05895-.00578.11762-.00578.05867-.01728.11649-.0115.05782-.02861.11423-.01711.05642-.03967.11088-.02256.05447-.05035.10646-.02779.05199-.06055.10101-.03275.04901-.07015.09458-.0374.04557-.07908.08726-.04169.04168-.08726.07908-.04557.0374-.09459.07015-.04901.03276-.101.06055-.05199.02779-.10646.05035-.05446.02256-.11088.03967-.05641.01711-.11423.02861-.05782.01151-.11649.01728-.05867.00578-.11762.00578-.05895 0-.11762-.00578-.05867-.00577-.116488-.01728-.05782-.0115-.114233-.02861-.056414-.01711-.110879-.03967-.054465-.02256-.106456-.05035-.051991-.02779-.101008-.06054-.049017-.03276-.094588-.07015-.04557-.03741-.087256-.07909-.041686-.04169-.079084-.08726-.037399-.04557-.070151-.09458-.032753-.04902-.060542-.10101-.02779-.05199-.0503504-.10646-.0225601-.05446-.039673-.11088-.0171129-.05641-.0286139-.11423-.011501-.05782-.01727937-.11649-.00577833-.05867-.00577833-.11762 0-.05895.00577833-.11762.00577837-.05867.01727937-.11649.011501-.05782.0286139-.11423.0171129-.05641.039673-.11088.0225604-.05446.0503504-.10645.027789-.052.060542-.10101.032752-.04902.070151-.09459.037398-.04557.079084-.08726.041686-.04168.087256-.07908.045571-.0374.094588-.07015.049017-.03275.101008-.06054.051991-.02779.106456-.05035.054465-.02256.110879-.03968.056413-.01711.114233-.02861.057818-.0115.116488-.01728.05867-.00578.11762-.00578.05895 0 .11762.00578.05867.00578.11649.01728.05782.0115.11423.02861.05642.01712.11088.03968.05447.02256.10646.05035.05199.02779.101.06054.04902.03275.09459.07015.04557.0374.08726.07908.04168.04169.07908.08726.0374.04557.07015.09459.03276.04901.06055.10101.02779.05199.05035.10645.02256.05447.03967.11088.01711.05641.02861.11423.0115.05782.01728.11649.00578.05867.00578.11762zm3.59985 0q0 .05895-.00577.11762-.00578.05867-.01728.11649-.0115.05782-.02862.11423-.01711.05642-.03967.11088-.02256.05447-.05035.10646-.02779.05199-.06054.10101-.03275.04901-.07015.09458-.0374.04557-.07909.08726-.04168.04168-.08725.07908-.04557.0374-.09459.07015-.04902.03276-.10101.06055-.05199.02779-.10646.05035-.05446.02256-.11087.03967-.05642.01711-.11424.02861-.05782.01151-.11648.01728-.05867.00578-.11763.00578-.05895 0-.11762-.00578-.05866-.00577-.11648-.01728-.05782-.0115-.11424-.02861-.05641-.01711-.11088-.03967-.05446-.02256-.10645-.05035-.05199-.02779-.10101-.06054-.04902-.03276-.09459-.07015-.04557-.03741-.08725-.07909-.04169-.04169-.07909-.08726-.0374-.04557-.07015-.09458-.03275-.04902-.06054-.10101-.02779-.05199-.05035-.10646-.02256-.05446-.03968-.11088-.01711-.05641-.02861-.11423-.0115-.05782-.01728-.11649-.00578-.05867-.00578-.11762 0-.05895.00578-.11762.00578-.05867.01728-.11649.0115-.05782.02861-.11423.01712-.05641.03968-.11088.02256-.05446.05035-.10645.02779-.052.06054-.10101.03275-.04902.07015-.09459.0374-.04557.07909-.08726.04168-.04168.08725-.07908.04557-.0374.09459-.07015.04902-.03275.10101-.06054.05199-.02779.10645-.05035.05447-.02256.11088-.03968.05642-.01711.11424-.02861.05782-.0115.11648-.01728.05867-.00578.11762-.00578.05896 0 .11763.00578.05866.00578.11648.01728.05782.0115.11424.02861.05641.01712.11087.03968.05447.02256.10646.05035.05199.02779.10101.06054.04902.03275.09459.07015.04557.0374.08725.07908.04169.04169.07909.08726.0374.04557.07015.09459.03275.04901.06054.10101.02779.05199.05035.10645.02256.05447.03967.11088.01712.05641.02862.11423.0115.05782.01728.11649.00577.05867.00577.11762zm3.6001 0q0 .05895-.00578.11762-.00577.05867-.01728.11649-.0115.05782-.02861.11423-.01711.05642-.03967.11088-.02256.05447-.05035.10646-.02779.05199-.06054.10101-.03276.04901-.07015.09458-.03741.04557-.07909.08726-.04169.04168-.08726.07908-.04557.0374-.09458.07015-.04902.03276-.10101.06055-.05199.02779-.10646.05035-.05446.02256-.11088.03967-.05641.01711-.11423.02861-.05782.01151-.11649.01728-.05867.00578-.11762.00578-.05895 0-.11762-.00578-.05867-.00577-.11649-.01728-.05782-.0115-.11423-.02861-.05641-.01711-.11088-.03967-.05446-.02256-.10645-.05035-.052-.02779-.10101-.06054-.04902-.03276-.09459-.07015-.04557-.03741-.08726-.07909-.04168-.04169-.07908-.08726-.0374-.04557-.07015-.09458-.03275-.04902-.06054-.10101-.02779-.05199-.05035-.10646-.02256-.05446-.03968-.11088-.01711-.05641-.02861-.11423-.0115-.05782-.01728-.11649-.00578-.05867-.00578-.11762 0-.05895.00578-.11762.00578-.05867.01728-.11649.0115-.05782.02861-.11423.01712-.05641.03968-.11088.02256-.05446.05035-.10645.02779-.052.06054-.10101.03275-.04902.07015-.09459.0374-.04557.07908-.08726.04169-.04168.08726-.07908.04557-.0374.09459-.07015.04901-.03275.10101-.06054.05199-.02779.10645-.05035.05447-.02256.11088-.03968.05641-.01711.11423-.02861.05782-.0115.11649-.01728.05867-.00578.11762-.00578.05895 0 .11762.00578.05867.00578.11649.01728.05782.0115.11423.02861.05642.01712.11088.03968.05447.02256.10646.05035.05199.02779.10101.06054.04901.03275.09458.07015.04557.0374.08726.07908.04168.04169.07908.08726.0374.04557.07015.09459.03276.04901.06055.10101.02779.05199.05035.10645.02256.05447.03967.11088.01711.05641.02861.11423.01151.05782.01728.11649.00578.05867.00578.11762z" fill="#cdcacf"/><rect fill="#2882ff" height="6" rx="3" width="18" x="94.717041" y="59.582157"/><rect fill="#eae8eb" height="6" rx="3" width="18" x="128.717052" y="59.582157"/><rect fill="#eae8eb" height="6" rx="3" width="18" x="162.71706" y="59.582157"/><path d="m62.717041 70.582153h210.565903v109.418076h-210.565903z" fill="#fafafa"/><path d="m68.71704102 22.58215332c-3.31371 0-6 2.68629-6 6v151.418h210.566v-151.418c0-3.31371-2.686-6-6-6zm204.066 156.918v-150.918q0-2.27818-1.611-3.88909-1.611-1.61091-3.889-1.61091l-198.566-.000001q-2.27817.000001-3.88909 1.610911-1.61091 1.61091-1.61091 3.88909v150.918z" fill="none" stroke="#eae8eb" stroke-width=".5"/></g></g></svg>