<svg xmlns="http://www.w3.org/2000/svg" xmlns:xlink="http://www.w3.org/1999/xlink" fill="none" version="1.1" width="336" height="180" viewBox="0 0 336 180"><defs><clipPath id="master_svg0_5708_10111"><rect x="0" y="0" width="336" height="180" rx="0"/></clipPath><filter id="master_svg1_5708_10398" filterUnits="objectBoundingBox" color-interpolation-filters="sRGB" x="-0.05" y="-0.05859375" width="1.1" height="1.140625"><feFlood flood-opacity="0" result="BackgroundImageFix"/><feColorMatrix in="SourceAlpha" type="matrix" values="0 0 0 0 0 0 0 0 0 0 0 0 0 0 0 0 0 0 127 0"/><feOffset dy="1.5" dx="0"/><feGaussianBlur stdDeviation="2.25"/><feColorMatrix type="matrix" values="0 0 0 0 0 0 0 0 0 0 0 0 0 0 0 0 0 0 0.07999999821186066 0"/><feBlend mode="normal" in2="BackgroundImageFix" result="effect1_dropShadow"/><feBlend mode="normal" in="SourceGraphic" in2="effect1_dropShadow" result="shape"/></filter><clipPath id="master_svg2_5708_10399/3125_8131/3410_01155"><rect x="159" y="42" width="18" height="18" rx="0"/></clipPath><clipPath id="master_svg3_5708_10399/3125_8131/3410_01156"><rect x="159" y="42" width="18" height="18" rx="0"/></clipPath><clipPath id="master_svg4_5708_10399/3125_8131/3410_01157"><rect x="160.5" y="43.5" width="15" height="15" rx="0"/></clipPath></defs><g clip-path="url(#master_svg0_5708_10111)"><rect x="0" y="0" width="336" height="180" rx="0" fill="#F3F4F6" fill-opacity="1"/><g filter="url(#master_svg1_5708_10398)"><rect x="78" y="26" width="180" height="128" rx="6" fill="#FFFFFF" fill-opacity="1"/><g><g><g clip-path="url(#master_svg2_5708_10399/3125_8131/3410_01155)"><g clip-path="url(#master_svg3_5708_10399/3125_8131/3410_01156)"></g><g clip-path="url(#master_svg4_5708_10399/3125_8131/3410_01157)"><g><path d="M162.43501908102036,57.812546875L162.43254908102037,57.812546875Q161.38097208102036,57.816046875,160.83512108102036,56.916546875Q160.28863008102036,56.015946875,160.77911908102035,55.083746875L166.34782908102036,44.556372875Q166.59094908102037,44.096876875,167.03622908102037,43.828711875Q167.48150908102036,43.560546875,168.00129908102036,43.560546875Q168.52108908102036,43.560546875,168.96636908102036,43.828711875Q169.41164908102036,44.096876875,169.65473908102035,44.556321875L175.22291908102036,55.082646875Q175.71451908102034,56.017046875,175.16651908102037,56.918046875Q174.61861908102037,57.819146875,173.56401908102035,57.812546875L162.43501908102036,57.812546875ZM167.32543908102036,48.749946875L167.32543908102036,52.574946875Q167.32543908102036,52.641436875,167.33840908102036,52.706636875Q167.35137908102035,52.771836875,167.37681908102036,52.833256875000004Q167.40225908102036,52.894686875,167.43919908102035,52.949956875Q167.47612908102036,53.005236875,167.52313908102036,53.052246875Q167.57014908102036,53.099256875,167.62542908102034,53.136186875Q167.68070908102035,53.173126875,167.74212908102035,53.198566875Q167.80354908102035,53.224006875,167.86874908102035,53.236976874999996Q167.93395908102036,53.249946875,168.00043908102035,53.249946875Q168.06691908102036,53.249946875,168.13212908102037,53.236976874999996Q168.19732908102034,53.224006875,168.25874908102037,53.198566875Q168.32016908102037,53.173126875,168.37544908102035,53.136186875Q168.43072908102036,53.099256875,168.47773908102036,53.052246875Q168.52474908102036,53.005236875,168.56167908102034,52.949956875Q168.59861908102036,52.894686875,168.62405908102036,52.833256875000004Q168.64949908102037,52.771836875,168.66246908102036,52.706636875Q168.67543908102036,52.641436875,168.67543908102036,52.574946875L168.67543908102036,48.749946875Q168.67543908102036,48.683466875,168.66246908102036,48.618266875Q168.64949908102037,48.553056875,168.62405908102036,48.491636875Q168.59861908102036,48.430216875,168.56167908102034,48.374936875Q168.52474908102036,48.319666875,168.47773908102036,48.272656875Q168.43072908102036,48.225646875,168.37544908102035,48.188706875Q168.32016908102037,48.151776875,168.25874908102037,48.126326875000004Q168.19732908102034,48.100886875,168.13212908102037,48.087916875Q168.06691908102036,48.074946875,168.00043908102035,48.074946875Q167.93395908102036,48.074946875,167.86874908102035,48.087916875Q167.80354908102035,48.100886875,167.74212908102035,48.126326875000004Q167.68070908102035,48.151776875,167.62542908102034,48.188706875Q167.57014908102036,48.225646875,167.52313908102036,48.272656875Q167.47612908102036,48.319666875,167.43919908102035,48.374936875Q167.40225908102036,48.430216875,167.37681908102036,48.491636875Q167.35137908102035,48.553056875,167.33840908102036,48.618266875Q167.32543908102036,48.683466875,167.32543908102036,48.749946875ZM167.32543908102036,54.600046875000004Q167.32543908102036,54.533546875,167.33840908102036,54.468346875Q167.35137908102035,54.403146875,167.37681908102036,54.341746875Q167.40225908102036,54.280346875,167.43919908102035,54.225046875000004Q167.47612908102036,54.169746875,167.52313908102036,54.122746875000004Q167.57014908102036,54.075746875,167.62542908102034,54.038846875000004Q167.68070908102035,54.001846875,167.74212908102035,53.976446875Q167.80354908102035,53.950946875,167.86874908102035,53.938046875Q167.93395908102036,53.925046875,168.00043908102035,53.925046875Q168.06691908102036,53.925046875,168.13212908102037,53.938046875Q168.19732908102034,53.950946875,168.25874908102037,53.976446875Q168.32016908102037,54.001846875,168.37544908102035,54.038846875000004Q168.43072908102036,54.075746875,168.47773908102036,54.122746875000004Q168.52474908102036,54.169746875,168.56167908102034,54.225046875000004Q168.59861908102036,54.280346875,168.62405908102036,54.341746875Q168.64949908102037,54.403146875,168.66246908102036,54.468346875Q168.67543908102036,54.533546875,168.67543908102036,54.600046875000004Q168.67543908102036,54.666546875,168.66246908102036,54.731746875Q168.64949908102037,54.796946875,168.62405908102036,54.858346875Q168.59861908102036,54.919746875,168.56167908102034,54.975046875000004Q168.52474908102036,55.030346875,168.47773908102036,55.077346875Q168.43072908102036,55.124346875,168.37544908102035,55.161246875Q168.32016908102037,55.198246875,168.25874908102037,55.223646875Q168.19732908102034,55.249146875,168.13212908102037,55.262046874999996Q168.06691908102036,55.275046875,168.00043908102035,55.275046875Q167.93395908102036,55.275046875,167.86874908102035,55.262046874999996Q167.80354908102035,55.249146875,167.74212908102035,55.223646875Q167.68070908102035,55.198246875,167.62542908102034,55.161246875Q167.57014908102036,55.124346875,167.52313908102036,55.077346875Q167.47612908102036,55.030346875,167.43919908102035,54.975046875000004Q167.40225908102036,54.919746875,167.37681908102036,54.858346875Q167.35137908102035,54.796946875,167.33840908102036,54.731746875Q167.32543908102036,54.666546875,167.32543908102036,54.600046875000004Z" fill-rule="evenodd" fill="#F97316" fill-opacity="1"/></g></g></g></g></g><g><g><rect x="138" y="68" width="60" height="6" rx="3" fill="#2882FF" fill-opacity="1"/></g><g><rect x="118" y="80" width="100" height="6" rx="3" fill="#EAE8EB" fill-opacity="1"/></g><g><rect x="118" y="92" width="100" height="6" rx="3" fill="#EAE8EB" fill-opacity="1"/></g></g><g><g><rect x="119.5" y="118" width="44" height="20" rx="6" fill="#2882FF" fill-opacity="1"/><g><rect x="131.5" y="125" width="20" height="6" rx="3" fill="#FFFFFF" fill-opacity="1"/></g></g><g><rect x="172.5" y="118" width="44" height="20" rx="6" fill="#FFFFFF" fill-opacity="1"/><rect x="172.875" y="118.375" width="43.25" height="19.25" rx="5.625" fill-opacity="0" stroke-opacity="1" stroke="#2882FF" fill="none" stroke-width="0.75"/><g><rect x="184.5" y="125" width="20" height="6" rx="3" fill="#2882FF" fill-opacity="1"/></g></g></g></g></g></svg>