<svg fill="none" height="180" viewBox="0 0 336 180" width="336" xmlns="http://www.w3.org/2000/svg" xmlns:xlink="http://www.w3.org/1999/xlink"><clipPath id="a"><path d="m0 0h336v180h-336z"/></clipPath><clipPath id="b"><path d="m128 50h80v80h-80z"/></clipPath><g clip-path="url(#a)"><path d="m0 0h336v180h-336z" fill="#f3f4f6"/><g clip-path="url(#b)"><path d="m135.53966538 83.24733809c1.291404-4.8167 10.336544-11.567013 12.143144-11.0837303 1.804.4834383 6.2645 10.8518303 4.97299999 15.6709303-1.29149999 4.8169-6.16929999 7.6953-10.89567999 6.4281-4.7264-1.2672-7.509527-6.1984-6.220464-11.0153z" fill="#e6e9ed"/><path d="m140.80348563 99.51379004c-.14602001-.0004-.29133-.0201-.43219001-.0586-.88859499-.2369-1.41828199-1.1523-1.17906309-2.0408l3.6375031-13.58137c.23921-.888596 1.15234-1.415939 2.04093999-1.179065.89109001.239218 1.41843001 1.152345 1.18156001 2.040935l-3.64 13.5811c-.19766.7445-.87141 1.2378-1.60875 1.2378z" fill="#ccd1d9"/><path d="m181.03227813 97.57094863-9.55533 2.9441-7.52187-24.41332 9.55781-2.94438z" fill="#ed5564"/><path d="m181.47543438 70.70339129-25.4852 7.85138.24156199-10.5392 22.29923801-6.8675z" fill="#434a54"/><path d="m190.04927188 100.04854004-12.6606-5.67594 2.25828-5.03656 5.4711-2.0825 5.10722 2.29 2.0825 5.46875zm-8.25388-7.35328 6.57688 2.94922.3295-.73735-1.1011-2.88812-2.58778-1.15969-2.88797 1.0986z" fill="#000"/><path d="m200.93660781 69.12172813c.5298.23921999.769.86421999.5298 1.39391l-9.23547 20.59764c-.23688.5299-.86188.7691-1.39406.5299l-7.692347-3.4497c-.5321895-.2392-.769061-.8619-.5321895-1.3941l9.2353165-20.597648c.23922-.5298429.86185-.766562 1.39405-.5298429z" fill="#a0d468"/><path d="m187.82481313 89.72633496c-.22952 0-.45906-.0487-.681087-.1464-.839686-.3759-1.215626-1.3623-.839686-2.2022l6.601253-14.723722c.37844-.839844 1.36469-1.215781 2.20453-.839844s1.21348 1.362186.83734 2.202036l-6.60156 14.72373c-.26812.5999-.86372.9862-1.52079.9864z" fill="#8cc153"/><path d="m134.66601563 86.66773496h66.6655v33.3315h-66.6655zm1.66734-19.9994h63.33076v3.3325h-63.33076z" fill="#f6bb42"/><path d="m148.00118438 99.99977301h-9.99970001c-.92281199 0-1.66749999-.74469-1.66749999-1.665 0-.92016.744688-1.66719 1.66749999-1.66719h9.99970001c.91799999 0 1.665.74703 1.665 1.66719 0 .92031-.74700001 1.665-1.665 1.665zm49.9986-3.33219h-6.6674c-.9204 0-1.6675-.74469-1.6675-1.6675 0-.920469.7471-1.665 1.6675-1.665h6.6674c.9198-.0005188 1.6655.74523 1.665 1.665 0 .92281-.7446 1.6675-1.665 1.6675zm-56.6658 16.6669h-3.33250001c-.92281199 0-1.66749999-.7471-1.66749999-1.6675 0-.9205.744688-1.6675 1.66749999-1.6675h3.33234001c.92047 0 1.66735.747 1.66735 1.6675 0 .9204-.74688 1.6675-1.66719 1.6675zm56.6658-1.6675h-11.667c-4.248 0-6.3818 2.2876-7.4243 4.204-1.0571 1.948-1.1718 3.8449-1.1815 4.0549v.0733h3.3373c.0317-.3174.1856-1.4966.8203-2.6221.9058-1.5987 2.3608-2.3776 4.4482-2.3776h11.667c.9204 0 1.665-.7447 1.665-1.665s-.7446-1.6675-1.665-1.6675z" fill="#dba037"/><path d="m128.00195313 60.00048828h9.99984v59.9983h-9.99984zm69.998 0h9.9998v59.9983h-9.9998z" fill="#ffce54"/></g></g></svg>