<svg xmlns="http://www.w3.org/2000/svg" xmlns:xlink="http://www.w3.org/1999/xlink" fill="none" version="1.1" width="24" height="24" viewBox="0 0 24 24"><defs><clipPath id="master_svg0_3069_6476"><rect x="0" y="0" width="24" height="24" rx="0"/></clipPath><clipPath id="master_svg1_3105_3984"><rect x="0" y="0" width="24" height="24" rx="0"/></clipPath></defs><g clip-path="url(#master_svg0_3069_6476)"><g clip-path="url(#master_svg1_3105_3984)"></g><g transform="matrix(0,-1,1,0,-16,24)"><g><g><path d="M12,34.39683575515747L5.02422,27.48749075515747C4.911577,27.37591675515747,4.766101,27.31428575515747,4.615385,27.31428575515747C4.275517,27.31428575515747,4,27.62129075515747,4,27.99999975515747C4,28.19586575515747,4.0751679,28.382385755157472,4.206545,28.51250575515747L11.59116,35.82679575515747C11.82432,36.057735755157466,12.17568,36.057735755157466,12.40884,35.82679575515747L19.7929,28.51308575515747L19.7929,28.51308575515747C19.924799999999998,28.382385755157472,20,28.19586575515747,20,27.99999975515747C20,27.62129075515747,19.7245,27.31428575515747,19.3846,27.31428575515747C19.2339,27.31428575515747,19.0884,27.37591675515747,18.9758,27.48749075515747L18.9758,27.48749075515747L12,34.39683575515747Z" fill-rule="evenodd" fill="#38363C" fill-opacity="1"/></g><g><path d="M12,27.08255L5.02422,20.173205C4.911577,20.061631,4.766101,20,4.615385,20C4.275517,20,4,20.307005,4,20.685714C4,20.88158,4.0751679,21.0681,4.206545,21.19822L11.59116,28.51251C11.82432,28.74345,12.17568,28.74345,12.40884,28.51251L19.7929,21.1988L19.7929,21.1988C19.924799999999998,21.0681,20,20.88158,20,20.685714C20,20.307005,19.7245,20,19.3846,20C19.2339,20,19.0884,20.061631,18.9758,20.173205L18.9758,20.173205L12,27.08255Z" fill-rule="evenodd" fill="#38363C" fill-opacity="1"/></g></g></g></g></svg>