<svg xmlns="http://www.w3.org/2000/svg" xmlns:xlink="http://www.w3.org/1999/xlink" fill="none" version="1.1" width="24" height="24" viewBox="0 0 24 24"><defs><clipPath id="master_svg0_450_84265"><rect x="0" y="0" width="24" height="24" rx="0"/></clipPath><clipPath id="master_svg1_3105_3983"><rect x="0" y="0" width="24" height="24" rx="0"/></clipPath></defs><g clip-path="url(#master_svg0_450_84265)"><g clip-path="url(#master_svg1_3105_3983)"></g><g transform="matrix(0,1,-1,0,24,-16)"><g><g><path d="M28,18.5234L21.02422,12.159531C20.911577,12.0567654,20.766101,12,20.615385,12C20.275517,12,20,12.282768,20,12.631579C20,12.811982,20.0751679,12.983774,20.206545,13.10363L27.591160000000002,19.84047C27.82432,20.053179999999998,28.17568,20.053179999999998,28.408839999999998,19.84047L35.7929,13.10416L35.7929,13.10416C35.9248,12.983774,36,12.811982,36,12.631579C36,12.282768,35.7245,12,35.3846,12C35.2339,12,35.0884,12.0567654,34.9758,12.159531L34.9758,12.159531L28,18.5234Z" fill-rule="evenodd" fill="#38363C" fill-opacity="1"/></g><g><path d="M28,10.523399999999999L21.02422,4.159531C20.911577,4.0567654,20.766101,4,20.615385,4C20.275517,4,20,4.282768,20,4.631579C20,4.811982,20.0751679,4.983774,20.206545,5.10363L27.591160000000002,11.84047C27.82432,12.05318,28.17568,12.05318,28.408839999999998,11.84047L35.7929,5.10416L35.7929,5.10416C35.9248,4.983774,36,4.811982,36,4.631579C36,4.282768,35.7245,4,35.3846,4C35.2339,4,35.0884,4.0567654,34.9758,4.159531L34.9758,4.159531L28,10.523399999999999Z" fill-rule="evenodd" fill="#38363C" fill-opacity="1"/></g></g></g></g></svg>