<svg xmlns="http://www.w3.org/2000/svg" xmlns:xlink="http://www.w3.org/1999/xlink" fill="none" version="1.1" width="24" height="24" viewBox="0 0 24 24"><defs><clipPath id="master_svg0_3253_09938"><rect x="0" y="0" width="24" height="24" rx="0"/></clipPath><clipPath id="master_svg1_3253_09939"><rect x="0" y="0" width="24" height="24" rx="0"/></clipPath></defs><g clip-path="url(#master_svg0_3253_09938)"><g clip-path="url(#master_svg1_3253_09939)"></g><g><path d="M8.6666259765625,11.375L3.6666259765625,11.375C3.3214479765625002,11.375,3.0416259765625,11.654822,3.0416259765625,12C3.0416259765625,12.345178,3.3214479765625002,12.625,3.6666259765625,12.625L8.0416259765625,12.625L8.0416259765625,14.5C8.0416259765625,14.84518,8.3214459765625,15.125,8.6666259765625,15.125L15.3333259765625,15.125C15.6784259765625,15.125,15.9583259765625,14.84518,15.9583259765625,14.5L15.9583259765625,12.625L20.3333259765625,12.625C20.6784259765625,12.625,20.9583259765625,12.345178,20.9583259765625,12C20.9583259765625,11.654822,20.6784259765625,11.375,20.3333259765625,11.375L15.3333259765625,11.375C14.9881259765625,11.375,14.7083259765625,11.654822,14.7083259765625,12L14.7083259765625,13.875L9.2916259765625,13.875L9.2916259765625,12C9.2916259765625,11.654822,9.0118059765625,11.375,8.6666259765625,11.375Z" fill-rule="evenodd" fill="#38363C" fill-opacity="1"/></g><g><path d="M20.9185259765625,11.780555876464843C20.9448259765625,11.850725876464843,20.9583259765625,11.925055876464842,20.9583259765625,12.000005876464844L20.9583259765625,17.000035876464842Q20.9583259765625,17.949235876464844,20.2871259765625,18.620435876464846Q19.6158259765625,19.291635876464845,18.6666259765625,19.291635876464845L5.3332959765625,19.291635876464845Q4.3840559765625,19.291635876464845,3.7128399765625,18.620435876464846Q3.0416259765625,17.949235876464844,3.041626026233,17.000035876464842L3.0416259765625,12.000005876464844C3.041626026233,11.925055876464842,3.0551053765625,11.850725876464843,3.0814202765625,11.780555876464843L5.1758759765625,6.1953458764648435Q5.4274359765625,5.524509876464844,6.0163059765625,5.116422876464844Q6.6051759765625,4.708335876464844,7.3216259765625,4.708335876464844L16.678325976562498,4.7083359758059435Q17.394725976562498,4.708336025476844,17.9836259765625,5.116422876464844Q18.572525976562503,5.524510876464844,18.824025976562503,6.1953458764648435L20.9185259765625,11.780555876464843ZM17.653625976562502,6.634245876464844L19.7083259765625,12.113335876464845L19.7083259765625,17.000035876464842Q19.7083259765625,17.431435876464846,19.4032259765625,17.736535876464842Q19.0981259765625,18.041635876464845,18.6666259765625,18.041635876464845L5.3332959765625,18.041635876464845Q4.9018159765625,18.041635876464845,4.5967259765624995,17.736535876464842Q4.2916259765625,17.431435876464846,4.2916259765625,17.000035876464842L4.2916259765625,12.113335876464845L6.3462859765625,6.634245876464844Q6.5997559765625,5.958335876464844,7.3216259765625,5.958335876464844L16.678325976562498,5.958335876464844Q17.4001259765625,5.958335876464844,17.653625976562502,6.634245876464844Z" fill-rule="evenodd" fill="#38363C" fill-opacity="1"/></g></g></svg>