<svg xmlns="http://www.w3.org/2000/svg" xmlns:xlink="http://www.w3.org/1999/xlink" fill="none" version="1.1" width="64" height="41" viewBox="0 0 64 41"><defs><clipPath id="master_svg0_1345_35456"><rect x="0" y="0" width="64" height="41" rx="0"/></clipPath></defs><g clip-path="url(#master_svg0_1345_35456)"><g><g><ellipse cx="32" cy="34" rx="32" ry="7" fill="#F5F5F5" fill-opacity="1"/></g><g><g><path d="M8.5,23.5L55.5,23.5L55.5,13.571L45.2559,1.9577900000000001Q44.3329,0.5,42.907,0.5L21.093,0.5Q19.6676,0.5,18.74416,1.956709L8.5,13.572L8.5,23.5ZM54.5,22.5L9.5,22.5L9.5,13.95L19.5486,2.55647L19.5706,2.52107Q20.2056,1.5,21.093,1.5L42.907,1.5Q43.7945,1.5,44.4293,2.52183L44.4514,2.55738L54.5,13.949L54.5,22.5Z" fill-rule="evenodd" fill="#D9D9D9" fill-opacity="1"/></g><g><path d="M41.613,16.931C41.613,15.326,42.607,14.000999451,43.84,14L55,14L55,32.137C55,34.260000000000005,53.68,36,52.05,36L11.95,36C10.32,36,9,34.259,9,32.137L9,14L20.16,14C21.393,14,22.387,15.323,22.387,16.928L22.387,16.95C22.387,18.555,23.392,19.851,24.624000000000002,19.851L39.376000000000005,19.851C40.608000000000004,19.851,41.613,18.543,41.613,16.938L41.613,16.931Z" fill="#FAFAFA" fill-opacity="1"/><path d="M41.113,16.931L41.113,16.938Q41.113,17.97177,40.56,18.69181Q40.0537,19.351,39.376000000000005,19.351L24.624000000000002,19.351Q23.9446,19.351,23.4392,18.69672Q22.887,17.98186,22.887,16.95L22.887,16.928Q22.887,15.55343,22.1344,14.560164Q21.3311,13.5,20.16,13.5L8.5,13.5L8.5,32.137Q8.5,33.8994,9.466044,35.1673Q10.48151,36.5,11.95,36.5L52.05,36.5Q53.5186,36.5,54.5339,35.167699999999996Q55.5,33.9,55.5,32.137L55.5,13.5L43.8396,13.5Q42.6687,13.500949,41.8654,14.562264Q41.113,15.55648,41.113,16.931ZM41.353,19.30094Q42.113,18.31149,42.113,16.938L42.113,16.931Q42.113,15.89223,42.6628,15.16574Q43.1662,14.500546,43.8404,14.5L54.5,14.5L54.5,32.137Q54.5,33.5624,53.7386,34.5616Q53.0234,35.5,52.05,35.5L11.95,35.5Q10.97677,35.5,10.26146,34.5612Q9.5,33.5619,9.5,32.137L9.5,14.5L20.16,14.5Q20.8342,14.5,21.337400000000002,15.16409Q21.887,15.8895,21.887,16.928L21.887,16.95Q21.887,18.32312,22.6478,19.30803Q23.453400000000002,20.351,24.624000000000002,20.351L39.376000000000005,20.351Q40.5465,20.351,41.353,19.30094Z" fill-rule="evenodd" fill="#D9D9D9" fill-opacity="1"/></g></g></g></g></svg>