<svg fill="none" height="22" viewBox="0 0 62 22" width="62" xmlns="http://www.w3.org/2000/svg" xmlns:xlink="http://www.w3.org/1999/xlink"><clipPath id="a"><path d="m0 0h62v22h-62z"/></clipPath><g clip-path="url(#a)"><path d="m1 5v12c0 2.2091 1.79086 4 4 4h52c2.2091 0 4-1.7909 4-4v-12c0-2.20914-1.7909-4-4-4h-52c-2.20914 0-4 1.79086-4 4z" fill="#fff"/><path d="m1.81802 20.182q1.31802 1.318 3.18198 1.318h52q1.864 0 3.182-1.318 1.318-1.318 1.318-3.182v-12q0-1.86395-1.318-3.18198-1.318-1.31802-3.182-1.31802h-52q-1.86396 0-3.181981 1.31802-1.318019 1.31802-1.318019 3.18198v12q0 1.864 1.31802 3.182zm55.18198.318h-52q-1.44975 0-2.47487-1.0251-1.02513-1.0252-1.02513-2.4749v-12q0-1.44975 1.02513-2.47487 1.02512-1.02513 2.47487-1.02513h52q1.4498 0 2.4749 1.02513 1.0251 1.02512 1.0251 2.47487v12q0 1.4497-1.0251 2.4749-1.0251 1.0251-2.4749 1.0251z" fill="#c8a9fc" fill-rule="evenodd"/></g></svg>