<svg fill="none" height="28" viewBox="0 0 62 28" width="62" xmlns="http://www.w3.org/2000/svg" xmlns:xlink="http://www.w3.org/1999/xlink"><clipPath id="a"><path d="m0 0h62v28h-62z"/></clipPath><g clip-path="url(#a)"><path d="m1 17v-12c0-2.20914 1.79086-4 4-4h52c2.2091 0 4 1.79086 4 4v12c0 2.2091-1.7909 4-4 4h-3.408c-.8281.3711-1.5781.9399-2.1876 1.6763l-2.8612 3.4572c-.4044.4887-1.1153.4887-1.5197 0l-2.8612-3.4572c-.6095-.7364-1.3594-1.3052-2.1876-1.6763h-36.9747c-2.20914 0-4-1.7909-4-4z" fill="#fff" fill-rule="evenodd"/><path d="m.5 17v-12q0-1.86396 1.31802-3.18198 1.31802-1.31802 3.18198-1.31802h52q1.864 0 3.182 1.31802 1.318 1.31803 1.318 3.18198v12q0 1.864-1.318 3.182-1.318 1.318-3.182 1.318h-3.408v-.5l.2044.4563q-1.1655.5223-2.0068 1.5388l-2.8612 3.4572q-.4533.5477-1.145.5477-.6918 0-1.1451-.5477l-2.8612-3.4572q-.8413-1.0165-2.0068-1.5388l.2044-.4563v.5h-36.9747q-1.86396 0-3.18198-1.318-1.31802-1.318-1.31802-3.182zm1 0q0 1.4497 1.02513 2.4749 1.02512 1.0251 2.47487 1.0251h37.0817l.0975.0437q1.3783.6177 2.3683 1.8139l2.8612 3.4571q.1533.1853.3747.1853.2213 0 .3746-.1853l2.8612-3.4572q.99-1.1961 2.3683-1.8138l.0976-.0437h3.5149q1.4498 0 2.4749-1.0251 1.0251-1.0252 1.0251-2.4749v-12q0-1.44975-1.0251-2.47487-1.0251-1.02513-2.4749-1.02513h-52q-1.44975 0-2.47487 1.02513-1.02513 1.02512-1.02513 2.47487z" fill="#c8a9fc"/></g></svg>